<?xml version="1.0" standalone="no"?>
<!DOCTYPE svg PUBLIC "-//W3C//DTD SVG 20010904//EN"
 "http://www.w3.org/TR/2001/REC-SVG-20010904/DTD/svg10.dtd">
<svg version="1.0" xmlns="http://www.w3.org/2000/svg"
 width="500.000000pt" height="500.000000pt" viewBox="0 0 500.000000 500.000000"
 preserveAspectRatio="xMidYMid meet">
<metadata>
Created by potrace 1.14, written by Peter Selinger 2001-2017
</metadata>
<g transform="translate(0.000000,500.000000) scale(0.100000,-0.100000)"
fill="#000000" stroke="none">
<path d="M4001 4748 c-1 -9 -5 -18 -9 -20 -4 -1 -35 -39 -68 -83 -33 -44 -103
-136 -155 -205 -53 -69 -148 -195 -213 -280 -64 -85 -127 -168 -139 -184 -12
-16 -105 -138 -207 -272 -102 -133 -194 -255 -205 -270 -11 -15 -24 -32 -30
-38 -5 -6 -93 -121 -195 -256 -101 -135 -192 -254 -201 -265 -9 -11 -59 -76
-111 -145 -52 -69 -152 -201 -222 -294 -70 -92 -125 -170 -123 -172 3 -4 178
72 366 157 24 11 45 18 48 15 5 -4 -63 -141 -765 -1539 -204 -405 -366 -737
-361 -737 5 0 9 4 9 8 0 5 8 18 17 30 10 11 28 34 40 49 167 218 286 371 296
383 7 8 26 33 42 55 17 22 38 49 47 60 9 11 105 135 213 275 108 140 206 267
218 282 24 29 29 36 120 154 68 89 128 166 274 355 54 69 108 139 120 155 12
16 31 40 42 54 19 24 393 508 438 566 32 42 49 64 83 108 17 22 28 41 26 43
-2 2 -84 -23 -181 -57 -98 -33 -180 -59 -181 -57 -2 2 9 30 25 63 15 32 39 82
51 109 12 28 51 111 85 185 34 74 74 160 87 190 71 155 155 336 199 428 27 57
49 105 49 107 0 2 20 46 45 99 25 53 65 139 90 192 25 53 45 97 45 99 0 1 24
54 54 116 29 63 77 166 106 229 29 63 72 157 97 209 24 52 42 99 39 105 -2 6
-5 4 -5 -6z"/>
<path d="M2406 4253 c-4 -10 -64 -166 -133 -348 -69 -181 -127 -332 -129 -334
-3 -3 -89 67 -140 114 -6 5 -44 39 -84 75 -40 36 -79 71 -86 78 -19 18 -27 15
-21 -10 5 -19 35 -212 62 -393 3 -22 10 -65 15 -95 6 -30 12 -75 15 -100 3
-25 12 -83 20 -129 8 -46 15 -90 15 -98 0 -17 -17 -3 -170 137 -52 48 -117
107 -145 131 -27 24 -54 49 -60 54 -5 6 -22 21 -36 33 l-26 23 38 -148 c21
-81 41 -153 43 -160 8 -20 -5 -22 -57 -7 -84 24 -176 52 -267 79 -47 14 -94
27 -105 29 -11 3 -49 13 -85 24 -36 11 -77 23 -92 26 l-28 6 39 -107 c21 -60
71 -196 110 -305 39 -108 71 -200 71 -205 0 -5 -60 -8 -132 -8 -73 1 -136 0
-140 -2 -7 -3 35 -44 80 -78 7 -5 21 -17 30 -26 9 -8 73 -62 142 -120 69 -57
136 -113 150 -125 53 -46 238 -201 290 -244 30 -25 61 -52 70 -60 9 -9 32 -28
53 -44 20 -16 37 -33 37 -39 0 -5 -17 -29 -37 -51 -105 -117 -106 -120 -47
-111 68 10 100 14 164 20 30 3 66 8 80 10 14 2 43 7 65 9 22 3 63 8 91 11 l51
6 125 249 c115 228 134 276 104 251 -9 -8 -119 -58 -251 -116 -16 -7 -57 -25
-89 -40 -102 -47 -149 -66 -152 -62 -2 2 24 40 58 84 63 81 120 155 352 462
69 90 136 178 149 195 13 17 62 81 107 141 79 104 173 227 350 460 93 121 96
127 104 190 9 66 15 104 21 135 2 14 7 45 11 70 3 24 8 48 10 52 17 27 -71
-42 -162 -127 -67 -62 -159 -140 -167 -140 -5 0 -17 23 -27 50 -40 109 -133
352 -144 380 -7 17 -22 55 -34 85 -63 168 -69 182 -76 163z"/>
<path d="M3810 3224 c-25 -8 -54 -16 -65 -18 -11 -3 -108 -30 -215 -62 l-195
-57 -73 -159 c-40 -88 -72 -161 -70 -163 2 -2 30 6 63 17 243 83 379 128 381
125 2 -2 -16 -27 -40 -57 -23 -30 -159 -206 -301 -390 -143 -184 -263 -339
-267 -345 -38 -47 -268 -345 -268 -348 0 -2 6 -4 13 -4 19 -1 119 -13 147 -18
24 -4 107 -15 160 -20 14 -1 49 -6 79 -10 l54 -7 -44 52 c-24 29 -56 67 -71
85 l-28 33 68 59 c37 32 90 76 116 98 27 22 56 47 66 55 10 8 39 33 66 55 83
69 208 175 234 199 14 12 66 56 115 97 50 41 95 79 101 84 6 6 29 25 52 44 23
18 42 36 42 40 0 4 -61 6 -136 6 -75 0 -138 3 -140 7 -3 4 0 15 5 25 5 10 24
59 42 108 47 132 92 256 137 378 22 60 34 107 28 106 -6 0 -31 -7 -56 -15z"/>
</g>
</svg>
