<?xml version="1.0" encoding="utf-8"?>
<svg version="1.2" baseProfile="tiny-ps" xmlns:xlink="http://www.w3.org/1999/xlink" viewBox="0 0 96 96" width="96" height="96" xmlns="http://www.w3.org/2000/svg">
  <title>VBallTracker</title>
  
  <path d="M0 0h96v96H0z" stroke-dasharray="none" fill-opacity="1" stroke-linejoin="round" stroke-linecap="round" stroke-width="0" stroke="#000" fill="#fff" />
  <circle cx="40" cy="40" transform="translate(-8.889 -8.889)scale(1.42222)" r="30.3" stroke-opacity="1" stroke-dasharray="none" stroke-width=".00000146667" stroke="#bab923" fill-rule="nonzero" fill-opacity="1" fill="#fef410" />
  <path fill="#2343ba" d="M44.599 26.235c18.885-9.065 5.04-14.9 6.046-14.56.54.183 8.995 3.028 14.081 10.884 2 3.086.566 6.212-7.561 8.507.232 30.719 9.711 20.542 3.287 31.028-1.2 1.774-5.478 4.755-10.808 6.594 4.015-4.07-5.028-1.152-3.541-17.234.605-6.545 1.846-11.686 1.695-11.786-24.055-15.978-30.884 9.616-38.05 2.615-.216-2.418.115-6.69.916-9.725 13.21-18.022 24.271-11.862 33.935-6.323Z" transform="translate(-8.889 -8.889)scale(1.42222)" stroke-opacity="1" stroke-dasharray="none" stroke-width="0" stroke="#2343ba" fill-opacity="1" />
  <circle cx="40" cy="40" fill="#0b0f19" transform="translate(-8.889 -8.889)scale(1.42222)" r="32" stroke-opacity="1" stroke-dasharray="none" stroke-width="3.5" stroke="#9aa6b2" fill-opacity="0" />
</svg>